# ProBuilder 4.4.0
# https://unity3d.com/unity/features/worldbuilding/probuilder
# 21/12/2020 09:54:01

mtllib ./Red.mtl
o Red

g Red
v -1.190816E-08 1.049593E-06 -0.499893
v -1 0 -0.08230555
v -1.190816E-08 0.4971298 -0.499893
v -1 0.4971297 -0.08230555
v -1 0 -0.9176944
v -1 0.4971297 -0.9176944
v 2.531834E-08 1.049593E-06 -0.5001145
v 2.531834E-08 0.4971298 -0.5001145

vt 0.1926284 1.049593E-06
vt -0.8910595 0
vt 0.1926284 0.4971298
vt -0.8910595 0.4971297
vt -0.08230555 0
vt -0.9176944 0
vt -0.08230555 0.4971297
vt -0.9176944 0.4971297
vt 1.276396 0
vt 1.276396 0.4971297
vt 0.5001145 1.049593E-06
vt 0.499893 1.049593E-06
vt 0.5001145 0.4971298
vt 0.499893 0.4971298
vt -4.735849E-08 -0.499893
vt 0.9999999 -0.08230555
vt -8.458498E-08 -0.5001145
vt 0.9999999 -0.9176944
vt -1 -0.9176944
vt -1 -0.08230555

vn 0.3853392 0 0.922775
vn -1 0 0
vn 0.3853333 0 -0.9227775
vn 1 0 0.0001680272
vn -1.192176E-07 1 -2.00318E-11
vn 1.049519E-06 -1 1.763477E-10

usemtl Green
f 3/3/1 4/4/1 2/2/1 1/1/1
f 4/7/2 6/8/2 5/6/2 2/5/2
f 6/10/3 8/3/3 7/1/3 5/9/3
f 8/13/4 3/14/4 1/12/4 7/11/4
f 8/17/5 6/18/5 4/16/5 3/15/5
f 1/15/6 2/20/6 5/19/6 7/17/6

